{
  "accessors": [
    {
      "bufferView": 2,
      "componentType": 5126,
      "count": 666,
      "max": [
        0.43425077199935913,
        0.4694189727306366,
        0.0
      ],
      "min": [
        -0.38379204273223877,
        -0.3455657362937927,
        -0.06882357597351074
      ],
      "type": "VEC3"
    },
    {
      "bufferView": 2,
      "byteOffset": 7992,
      "componentType": 5126,
      "count": 666,
      "max": [
        1.0,
        1.0,
        1.0
      ],
      "min": [
        -1.0,
        -1.0,
        0.0
      ],
      "type": "VEC3"
    },
    {
      "bufferView": 1,
      "componentType": 5126,
      "count": 666,
      "max": [
        0.9342507719993591,
        0.969419002532959
      ],
      "min": [
        0.0,
        0.0
      ],
      "type": "VEC2"
    },
    {
      "bufferView": 0,
      "componentType": 5125,
      "count": 1956,
      "type": "SCALAR"
    },
    {
      "bufferView": 2,
      "byteOffset": 15984,
      "componentType": 5126,
      "count": 74,
      "max": [
        0.36300039291381836,
        0.3458261489868164,
        -0.01849304884672165
      ],
      "min": [
        -0.3297991454601288,
        -0.24398493766784668,
        -0.06882357597351074
      ],
      "type": "VEC3"
    },
    {
      "bufferView": 2,
      "byteOffset": 16872,
      "componentType": 5126,
      "count": 74,
      "max": [
        0.0,
        0.0,
        1.0
      ],
      "min": [
        -1.0,
        0.0,
        0.0
      ],
      "type": "VEC3"
    },
    {
      "bufferView": 1,
      "byteOffset": 5328,
      "componentType": 5126,
      "count": 74,
      "max": [
        0.8630003929138184,
        0.8458261489868164
      ],
      "min": [
        0.17020085453987122,
        0.2560150623321533
      ],
      "type": "VEC2"
    },
    {
      "bufferView": 0,
      "byteOffset": 7824,
      "componentType": 5125,
      "count": 198,
      "type": "SCALAR"
    },
    {
      "bufferView": 2,
      "byteOffset": 17760,
      "componentType": 5126,
      "count": 666,
      "max": [
        0.43425077199935913,
        0.4694189727306366,
        0.0
      ],
      "min": [
        -0.38379204273223877,
        -0.3455657362937927,
        -0.06882357597351074
      ],
      "type": "VEC3"
    },
    {
      "bufferView": 2,
      "byteOffset": 25752,
      "componentType": 5126,
      "count": 666,
      "max": [
        1.0,
        1.0,
        1.0
      ],
      "min": [
        -1.0,
        -1.0,
        0.0
      ],
      "type": "VEC3"
    },
    {
      "bufferView": 1,
      "byteOffset": 5920,
      "componentType": 5126,
      "count": 666,
      "max": [
        0.9342507719993591,
        0.969419002532959
      ],
      "min": [
        0.0,
        0.0
      ],
      "type": "VEC2"
    },
    {
      "bufferView": 0,
      "byteOffset": 8616,
      "componentType": 5125,
      "count": 1956,
      "type": "SCALAR"
    },
    {
      "bufferView": 2,
      "byteOffset": 33744,
      "componentType": 5126,
      "count": 74,
      "max": [
        0.36300039291381836,
        0.3458261489868164,
        -0.01849304884672165
      ],
      "min": [
        -0.3297991454601288,
        -0.24398493766784668,
        -0.06882357597351074
      ],
      "type": "VEC3"
    },
    {
      "bufferView": 2,
      "byteOffset": 34632,
      "componentType": 5126,
      "count": 74,
      "max": [
        0.0,
        0.0,
        1.0
      ],
      "min": [
        -1.0,
        0.0,
        0.0
      ],
      "type": "VEC3"
    },
    {
      "bufferView": 1,
      "byteOffset": 11248,
      "componentType": 5126,
      "count": 74,
      "max": [
        0.8630003929138184,
        0.8458261489868164
      ],
      "min": [
        0.17020085453987122,
        0.2560150623321533
      ],
      "type": "VEC2"
    },
    {
      "bufferView": 0,
      "byteOffset": 16440,
      "componentType": 5125,
      "count": 198,
      "type": "SCALAR"
    },
    {
      "bufferView": 2,
      "byteOffset": 35520,
      "componentType": 5126,
      "count": 666,
      "max": [
        0.43425077199935913,
        0.4694189727306366,
        0.0
      ],
      "min": [
        -0.38379204273223877,
        -0.3455657362937927,
        -0.06882357597351074
      ],
      "type": "VEC3"
    },
    {
      "bufferView": 2,
      "byteOffset": 43512,
      "componentType": 5126,
      "count": 666,
      "max": [
        1.0,
        1.0,
        1.0
      ],
      "min": [
        -1.0,
        -1.0,
        0.0
      ],
      "type": "VEC3"
    },
    {
      "bufferView": 1,
      "byteOffset": 11840,
      "componentType": 5126,
      "count": 666,
      "max": [
        0.9342507719993591,
        0.969419002532959
      ],
      "min": [
        0.0,
        0.0
      ],
      "type": "VEC2"
    },
    {
      "bufferView": 0,
      "byteOffset": 17232,
      "componentType": 5125,
      "count": 1956,
      "type": "SCALAR"
    },
    {
      "bufferView": 2,
      "byteOffset": 51504,
      "componentType": 5126,
      "count": 74,
      "max": [
        0.36300039291381836,
        0.3458261489868164,
        -0.01849304884672165
      ],
      "min": [
        -0.3297991454601288,
        -0.24398493766784668,
        -0.06882357597351074
      ],
      "type": "VEC3"
    },
    {
      "bufferView": 2,
      "byteOffset": 52392,
      "componentType": 5126,
      "count": 74,
      "max": [
        0.0,
        0.0,
        1.0
      ],
      "min": [
        -1.0,
        0.0,
        0.0
      ],
      "type": "VEC3"
    },
    {
      "bufferView": 1,
      "byteOffset": 17168,
      "componentType": 5126,
      "count": 74,
      "max": [
        0.8630003929138184,
        0.8458261489868164
      ],
      "min": [
        0.17020085453987122,
        0.2560150623321533
      ],
      "type": "VEC2"
    },
    {
      "bufferView": 0,
      "byteOffset": 25056,
      "componentType": 5125,
      "count": 198,
      "type": "SCALAR"
    },
    {
      "bufferView": 2,
      "byteOffset": 53280,
      "componentType": 5126,
      "count": 666,
      "max": [
        0.43425077199935913,
        0.4694189727306366,
        0.0
      ],
      "min": [
        -0.38379204273223877,
        -0.3455657362937927,
        -0.06882357597351074
      ],
      "type": "VEC3"
    },
    {
      "bufferView": 2,
      "byteOffset": 61272,
      "componentType": 5126,
      "count": 666,
      "max": [
        1.0,
        1.0,
        1.0
      ],
      "min": [
        -1.0,
        -1.0,
        0.0
      ],
      "type": "VEC3"
    },
    {
      "bufferView": 1,
      "byteOffset": 17760,
      "componentType": 5126,
      "count": 666,
      "max": [
        0.9342507719993591,
        0.969419002532959
      ],
      "min": [
        0.0,
        0.0
      ],
      "type": "VEC2"
    },
    {
      "bufferView": 0,
      "byteOffset": 25848,
      "componentType": 5125,
      "count": 1956,
      "type": "SCALAR"
    },
    {
      "bufferView": 2,
      "byteOffset": 69264,
      "componentType": 5126,
      "count": 74,
      "max": [
        0.36300039291381836,
        0.3458261489868164,
        -0.01849304884672165
      ],
      "min": [
        -0.3297991454601288,
        -0.24398493766784668,
        -0.06882357597351074
      ],
      "type": "VEC3"
    },
    {
      "bufferView": 2,
      "byteOffset": 70152,
      "componentType": 5126,
      "count": 74,
      "max": [
        0.0,
        0.0,
        1.0
      ],
      "min": [
        -1.0,
        0.0,
        0.0
      ],
      "type": "VEC3"
    },
    {
      "bufferView": 1,
      "byteOffset": 23088,
      "componentType": 5126,
      "count": 74,
      "max": [
        0.8630003929138184,
        0.8458261489868164
      ],
      "min": [
        0.17020085453987122,
        0.2560150623321533
      ],
      "type": "VEC2"
    },
    {
      "bufferView": 0,
      "byteOffset": 33672,
      "componentType": 5125,
      "count": 198,
      "type": "SCALAR"
    }
  ],
  "asset": {
    "extras": {
      "author": "Fridqeir (https://sketchfab.com/Fridqeir)",
      "license": "CC-BY-4.0 (http://creativecommons.org/licenses/by/4.0/)",
      "source": "https://sketchfab.com/3d-models/old-building-lowpoly-1f304c6e56324c19955a18aa79b15b9f",
      "title": "Old Building | Lowpoly"
    },
    "generator": "Sketchfab-16.16.0",
    "version": "2.0"
  },
  "bufferViews": [
    {
      "buffer": 0,
      "byteLength": 34464,
      "name": "floatBufferViews",
      "target": 34963
    },
    {
      "buffer": 0,
      "byteLength": 23680,
      "byteOffset": 34464,
      "byteStride": 8,
      "name": "floatBufferViews",
      "target": 34962
    },
    {
      "buffer": 0,
      "byteLength": 71040,
      "byteOffset": 58144,
      "byteStride": 12,
      "name": "floatBufferViews",
      "target": 34962
    }
  ],
  "buffers": [
    {
      "byteLength": 129184,
      "uri": "f.bin"
    }
  ],
  "images": [
    {
      "uri": "textures/Building_baseColor.png"
    }
  ],
  "materials": [
    {
      "doubleSided": true,
      "name": "Building",
      "pbrMetallicRoughness": {
        "baseColorTexture": {
          "index": 0
        },
        "metallicFactor": 0.0,
        "roughnessFactor": 0.8211145618000169
      }
    },
    {
      "doubleSided": true,
      "name": "Windows",
      "pbrMetallicRoughness": {
        "baseColorTexture": {
          "index": 0
        },
        "metallicFactor": 0.8,
        "roughnessFactor": 0.0
      }
    }
  ],
  "meshes": [
    {
      "name": "building_Building_0",
      "primitives": [
        {
          "attributes": {
            "NORMAL": 1,
            "POSITION": 0,
            "TEXCOORD_0": 2
          },
          "indices": 3,
          "material": 0,
          "mode": 4
        }
      ]
    },
    {
      "name": "building_Windows_0",
      "primitives": [
        {
          "attributes": {
            "NORMAL": 5,
            "POSITION": 4,
            "TEXCOORD_0": 6
          },
          "indices": 7,
          "material": 1,
          "mode": 4
        }
      ]
    },
    {
      "name": "building.001_Building_0",
      "primitives": [
        {
          "attributes": {
            "NORMAL": 9,
            "POSITION": 8,
            "TEXCOORD_0": 10
          },
          "indices": 11,
          "material": 0,
          "mode": 4
        }
      ]
    },
    {
      "name": "building.001_Windows_0",
      "primitives": [
        {
          "attributes": {
            "NORMAL": 13,
            "POSITION": 12,
            "TEXCOORD_0": 14
          },
          "indices": 15,
          "material": 1,
          "mode": 4
        }
      ]
    },
    {
      "name": "building.002_Building_0",
      "primitives": [
        {
          "attributes": {
            "NORMAL": 17,
            "POSITION": 16,
            "TEXCOORD_0": 18
          },
          "indices": 19,
          "material": 0,
          "mode": 4
        }
      ]
    },
    {
      "name": "building.002_Windows_0",
      "primitives": [
        {
          "attributes": {
            "NORMAL": 21,
            "POSITION": 20,
            "TEXCOORD_0": 22
          },
          "indices": 23,
          "material": 1,
          "mode": 4
        }
      ]
    },
    {
      "name": "building.003_Building_0",
      "primitives": [
        {
          "attributes": {
            "NORMAL": 25,
            "POSITION": 24,
            "TEXCOORD_0": 26
          },
          "indices": 27,
          "material": 0,
          "mode": 4
        }
      ]
    },
    {
      "name": "building.003_Windows_0",
      "primitives": [
        {
          "attributes": {
            "NORMAL": 29,
            "POSITION": 28,
            "TEXCOORD_0": 30
          },
          "indices": 31,
          "material": 1,
          "mode": 4
        }
      ]
    }
  ],
  "nodes": [
    {
      "children": [
        1
      ],
      "matrix": [
        1.0,
        0.0,
        0.0,
        0.0,
        0.0,
        2.220446049250313e-16,
        -1.0,
        0.0,
        0.0,
        1.0,
        2.220446049250313e-16,
        0.0,
        0.0,
        0.0,
        0.0,
        1.0
      ],
      "name": "Sketchfab_model"
    },
    {
      "children": [
        2
      ],
      "matrix": [
        0.009999999776482582,
        0.0,
        0.0,
        0.0,
        0.0,
        0.0,
        0.009999999776482582,
        0.0,
        0.0,
        -0.009999999776482582,
        0.0,
        0.0,
        0.0,
        0.0,
        0.0,
        1.0
      ],
      "name": "concrete building.fbx"
    },
    {
      "children": [
        3,
        6,
        9,
        12
      ],
      "name": "RootNode"
    },
    {
      "children": [
        4,
        5
      ],
      "matrix": [
        8.346527797694421e-05,
        3.657895662389274e-21,
        -1105.5311279296843,
        0.0,
        4.8324312178916445e-05,
        1105.5311279296864,
        3.6483840655615285e-12,
        0.0,
        1105.5311279296834,
        -4.832431217891658e-05,
        8.346527797694421e-05,
        0.0,
        0.0,
        382.4478454589844,
        0.0,
        1.0
      ],
      "name": "building"
    },
    {
      "mesh": 0,
      "name": "building_Building_0"
    },
    {
      "mesh": 1,
      "name": "building_Windows_0"
    },
    {
      "children": [
        7,
        8
      ],
      "matrix": [
        1105.5311279296875,
        0.0,
        0.0,
        0.0,
        0.0,
        1105.5311279296864,
        4.8324304323645473e-05,
        0.0,
        0.0,
        -4.8324304323645473e-05,
        1105.5311279296864,
        0.0,
        -480.0775451660156,
        382.4478454589844,
        424.29241943359375,
        1.0
      ],
      "name": "building.001"
    },
    {
      "mesh": 2,
      "name": "building.001_Building_0"
    },
    {
      "mesh": 3,
      "name": "building.001_Windows_0"
    },
    {
      "children": [
        10,
        11
      ],
      "matrix": [
        8.346527797694421e-05,
        -3.657895662389274e-21,
        1105.5311279296843,
        0.0,
        -4.8324312178916445e-05,
        1105.5311279296864,
        3.6483840655615285e-12,
        0.0,
        -1105.5311279296834,
        -4.832431217891658e-05,
        8.346527797694421e-05,
        0.0,
        -904.3728637695313,
        382.4478454589844,
        -55.7823600769043,
        1.0
      ],
      "name": "building.002"
    },
    {
      "mesh": 4,
      "name": "building.002_Building_0"
    },
    {
      "mesh": 5,
      "name": "building.002_Windows_0"
    },
    {
      "children": [
        13,
        14
      ],
      "matrix": [
        -1105.531127929604,
        -1.3538851571767658e-13,
        -0.00043050971627185556,
        0.0,
        1.868279043565476e-11,
        1105.5311279296864,
        -4.832430445903032e-05,
        0.0,
        0.00043050971627185523,
        -4.832430445903394e-05,
        -1105.5311279296031,
        0.0,
        -424.2952880859375,
        382.4478454589844,
        -480.07470703125,
        1.0
      ],
      "name": "building.003"
    },
    {
      "mesh": 6,
      "name": "building.003_Building_0"
    },
    {
      "mesh": 7,
      "name": "building.003_Windows_0"
    }
  ],
  "samplers": [
    {
      "magFilter": 9729,
      "minFilter": 9987,
      "wrapS": 33071,
      "wrapT": 33071
    }
  ],
  "scene": 0,
  "scenes": [
    {
      "name": "Sketchfab_Scene",
      "nodes": [
        0
      ]
    }
  ],
  "textures": [
    {
      "sampler": 0,
      "source": 0
    }
  ]
}
